# Blender v2.93.1 OBJ File: 'cube_example.blend'
# www.blender.org
mtllib cube.mtl
o CubeMain_Cube
v 1.173849 2.168957 -1.197749
v 1.173849 -0.168957 -1.197749
v 1.173849 2.168957 1.140165
v 1.173849 -0.168957 1.140165
v -1.164065 2.168957 -1.197749
v -1.164065 -0.168957 -1.197749
v -1.164065 2.168957 1.140165
v -1.164065 -0.168957 1.140165
vt 0.876511 0.498489
vt 0.623489 0.751511
vt 0.623489 0.498489
vt 0.626511 0.748490
vt 0.373490 1.001511
vt 0.373490 0.748490
vt 0.626511 -0.001511
vt 0.373490 0.251511
vt 0.373489 -0.001511
vt 0.376511 0.498489
vt 0.123489 0.751511
vt 0.123489 0.498489
vt 0.626511 0.498489
vt 0.373489 0.751511
vt 0.373490 0.498489
vt 0.626511 0.248489
vt 0.373490 0.501511
vt 0.373490 0.248489
vt 0.876511 0.751511
vt 0.626511 1.001511
vt 0.626511 0.251511
vt 0.376511 0.751511
vt 0.626511 0.751511
vt 0.626511 0.501511
vn 0.0000 1.0000 0.0000
vn 0.0000 0.0000 1.0000
vn -1.0000 0.0000 0.0000
vn 0.0000 -1.0000 0.0000
vn 1.0000 0.0000 0.0000
vn 0.0000 0.0000 -1.0000
usemtl Material
s off
f 5/1/1 3/2/1 1/3/1
f 3/4/2 8/5/2 4/6/2
f 7/7/3 6/8/3 8/9/3
f 2/10/4 8/11/4 6/12/4
f 1/13/5 4/14/5 2/15/5
f 5/16/6 2/17/6 6/18/6
f 5/1/1 7/19/1 3/2/1
f 3/4/2 7/20/2 8/5/2
f 7/7/3 5/21/3 6/8/3
f 2/10/4 4/22/4 8/11/4
f 1/13/5 3/23/5 4/14/5
f 5/16/6 1/24/6 2/17/6
o CubeTop_Cube.001
v -0.450544 2.591038 -0.349635
v -0.450544 2.146348 -0.349635
v -0.450544 2.591038 0.255513
v -0.450544 2.146348 0.255513
v 0.450544 2.591038 -0.349635
v 0.450544 2.146348 -0.349635
v 0.450544 2.591038 0.255513
v 0.450544 2.146348 0.255513
vt 0.625000 0.000000
vt 0.375000 0.250000
vt 0.375000 0.000000
vt 0.625000 0.250000
vt 0.375000 0.500000
vt 0.625000 0.500000
vt 0.375000 0.750000
vt 0.625000 0.750000
vt 0.375000 1.000000
vt 0.125000 0.750000
vt 0.125000 0.500000
vt 0.875000 0.500000
vt 0.625000 1.000000
vt 0.875000 0.750000
vn -1.0000 0.0000 0.0000
vn 0.0000 0.0000 1.0000
vn 1.0000 0.0000 0.0000
vn 0.0000 -0.0000 -1.0000
vn 0.0000 1.0000 0.0000
vn 0.0000 -1.0000 0.0000
usemtl Material
s off
f 10/25/7 11/26/7 9/27/7
f 12/28/8 15/29/8 11/26/8
f 16/30/9 13/31/9 15/29/9
f 14/32/10 9/33/10 13/31/10
f 15/29/11 9/34/11 11/35/11
f 12/36/12 14/32/12 16/30/12
f 10/25/7 12/28/7 11/26/7
f 12/28/8 16/30/8 15/29/8
f 16/30/9 14/32/9 13/31/9
f 14/32/10 10/37/10 9/33/10
f 15/29/11 13/31/11 9/34/11
f 12/36/12 10/38/12 14/32/12
